<svg width="18" height="22" viewBox="0 0 18 22" fill="none" xmlns="http://www.w3.org/2000/svg">
<path d="M14.7422 2.55469C13.9453 1.74219 13.0117 1.11328 11.9414 0.667969C10.8711 0.222656 9.76562 0 8.625 0C7.5 0 6.40234 0.222656 5.33203 0.667969C4.26172 1.11328 3.32031 1.74219 2.50781 2.55469C1.69531 3.36719 1.07422 4.29688 0.644531 5.34375C0.214844 6.39062 0 7.49219 0 8.64844C0 9.30469 0.0859375 9.97656 0.257812 10.6641C0.429688 11.3516 0.683594 12.0547 1.01953 12.7734C1.35547 13.4922 1.78125 14.2188 2.29688 14.9531C2.79688 15.6875 3.39062 16.4375 4.07812 17.2031C4.59375 17.7812 5.09375 18.3008 5.57812 18.7617C6.0625 19.2227 6.46875 19.6016 6.79688 19.8984C6.98438 20.0703 7.15625 20.2188 7.3125 20.3438C7.46875 20.4688 7.60156 20.5703 7.71094 20.6484C7.72656 20.6797 7.80469 20.7461 7.94531 20.8477C8.08594 20.9492 8.19531 21.0234 8.27344 21.0703C8.38281 21.1328 8.50391 21.1641 8.63672 21.1641C8.76953 21.1641 8.89062 21.1328 9 21.0703C9.07812 21.0234 9.19141 20.9453 9.33984 20.8359C9.48828 20.7266 9.5625 20.6719 9.5625 20.6719C9.67188 20.5781 9.80078 20.4688 9.94922 20.3438C10.0977 20.2188 10.2656 20.0703 10.4531 19.8984C10.7812 19.6172 11.1875 19.2461 11.6719 18.7852C12.1562 18.3242 12.6562 17.7969 13.1719 17.2031C13.8594 16.4531 14.4531 15.7031 14.9531 14.9531C15.4688 14.2188 15.8984 13.4961 16.2422 12.7852C16.5859 12.0742 16.8438 11.375 17.0156 10.6875C17.1875 10 17.2734 9.32031 17.2734 8.64844C17.2734 7.50781 17.0547 6.41016 16.6172 5.35547C16.1797 4.30078 15.5547 3.36719 14.7422 2.55469ZM15.3516 8.64844C15.3516 9.32031 15.2422 9.99219 15.0234 10.6641C14.8047 11.3203 14.5234 11.9648 14.1797 12.5977C13.8359 13.2305 13.4453 13.8281 13.0078 14.3906C12.5859 14.9531 12.1719 15.4688 11.7656 15.9375C11.3906 16.3594 10.9883 16.7812 10.5586 17.2031C10.1289 17.625 9.67969 18.0469 9.21094 18.4688C9.10156 18.5625 9 18.6484 8.90625 18.7266C8.8125 18.8047 8.71875 18.875 8.625 18.9375C8.54688 18.875 8.46094 18.8008 8.36719 18.7148C8.27344 18.6289 8.17188 18.5469 8.0625 18.4688C7.59375 18.0469 7.14453 17.625 6.71484 17.2031C6.28516 16.7812 5.88281 16.3594 5.50781 15.9375C5.10156 15.4688 4.67969 14.9531 4.24219 14.3906C3.82031 13.8281 3.43359 13.2305 3.08203 12.5977C2.73047 11.9648 2.44531 11.3203 2.22656 10.6641C2.00781 9.99219 1.89844 9.32031 1.89844 8.64844C1.89844 7.75781 2.07031 6.90234 2.41406 6.08203C2.75781 5.26172 3.24219 4.53125 3.86719 3.89062C4.49219 3.26562 5.21875 2.78125 6.04688 2.4375C6.875 2.09375 7.73438 1.92188 8.625 1.92188C9.5 1.92188 10.3555 2.09375 11.1914 2.4375C12.0273 2.78125 12.7578 3.26562 13.3828 3.89062C14.0078 4.53125 14.4922 5.26172 14.8359 6.08203C15.1797 6.90234 15.3516 7.75781 15.3516 8.64844ZM8.64844 4.80469C7.58594 4.80469 6.67969 5.17969 5.92969 5.92969C5.17969 6.67969 4.80469 7.58594 4.80469 8.64844C4.80469 9.71094 5.17969 10.6172 5.92969 11.3672C6.67969 12.1172 7.58594 12.4922 8.64844 12.4922C9.71094 12.4922 10.6172 12.1172 11.3672 11.3672C12.1172 10.6172 12.4922 9.71094 12.4922 8.64844C12.4922 7.58594 12.1172 6.67969 11.3672 5.92969C10.6172 5.17969 9.71094 4.80469 8.64844 4.80469ZM10.5703 8.64844C10.5703 9.17969 10.3828 9.63281 10.0078 10.0078C9.63281 10.3828 9.17969 10.5703 8.64844 10.5703C8.11719 10.5703 7.66406 10.3828 7.28906 10.0078C6.91406 9.63281 6.72656 9.17969 6.72656 8.64844C6.72656 8.11719 6.91406 7.66406 7.28906 7.28906C7.66406 6.91406 8.11719 6.72656 8.64844 6.72656C9.17969 6.72656 9.63281 6.91406 10.0078 7.28906C10.3828 7.66406 10.5703 8.11719 10.5703 8.64844Z" fill="#582D0B"/>
</svg>
